<?xml version="1.0" standalone="no"?>
 <!DOCTYPE svg PUBLIC "-//W3C//DTD SVG 1.1//EN" 
 "http://www.w3.org/Graphics/SVG/1.1/DTD/svg11.dtd"> 
<svg
  xmlns:svg="http://www.w3.org/2000/svg"
  xmlns="http://www.w3.org/2000/svg"
  xmlns:xlink="http://www.w3.org/1999/xlink"
  version="1.1"
  width="41.998900cm" height="29.700220cm" viewBox="0 0 419989000 297002200">
<title>SVG Picture created as Atreyu-Edge_Cuts.svg date 2022/01/01 13:10:55 </title>
  <desc>Picture generated by PCBNEW </desc>
<g style="fill:#000000; fill-opacity:1.000000;stroke:#000000; stroke-opacity:1.000000;
stroke-linecap:round; stroke-linejoin:round;"
 transform="translate(0 0) scale(1 1)">
</g>
<g style="fill:#000000; fill-opacity:0.0; 
stroke:#000000; stroke-width:0.000000; stroke-opacity:1; 
stroke-linecap:round; stroke-linejoin:round;">
</g>
<g style="fill:#000000; fill-opacity:0.0; 
stroke:#000000; stroke-width:100000.000000; stroke-opacity:1; 
stroke-linecap:round; stroke-linejoin:round;">
<path d="M261873099 145133939
L254330200 149225001
" />
<path d="M169418000 37185602
L172593001 37693602
" />
<path d="M253746003 23215601
L257175001 22580602
" />
<path d="M251485400 151053801
L254330200 149225001
" />
<path d="M95504001 20294601
L101600000 20548602
" />
<path d="M127228601 151053802
L130937002 154355802
" />
<path d="M202184001 38201603
L206121001 37693602
" />
<path d="M286639192 138533916
L280797001 139420603
" />
<path d="M257175001 22580602
L261366001 21945603
" />
<path d="M114300001 21564601
L117348001 21945603
" />
<path d="M223266001 165709601
L189357002 166090601
" />
<path d="M242062002 26263601
L247142001 24739601
" />
<path d="M213106002 36423601
L216154000 35661602
" />
<path d="M189357000 39090600
L194564001 38836601
" />
<path d="M283210001 20294601
L289179001 20167603
" />
<path d="M242492333 158773470
L244728999 157073602
" />
<path d="M65430402 22072603
L65633602 21767801
" />
<path d="M337312001 88239601
L337439000 89636601
" />
<path d="M268097002 21183603
L270891001 20929602
" />
<path d="M330073000 122910602
L328930001 125450601
" />
<path d="M151384000 31978601
L155067001 33375602
" />
<path d="M66497200 20955000
L66903601 20751802
" />
<path d="M325056501 128943102
L320802000 130911602
" />
<path d="M66141600 21209002
L66497200 20955000
" />
<path d="M313080402 21767801
L313283600 22072603
" />
<path d="M67310002 20599401
L67919601 20497801
" />
<path d="M65176401 22733003
L65277999 22377401
" />
<path d="M294386001 137896602
L286639192 138533916
" />
<path d="M310794401 20497801
L311404001 20599402
" />
<path d="M107950001 141706602
L112268002 142976601
" />
</g>
<g style="fill:#000000; fill-opacity:0.0; 
stroke:#000000; stroke-width:50000.000000; stroke-opacity:1; 
stroke-linecap:round; stroke-linejoin:round;">
<circle cx="189357000.000000" cy="39090600.000000" r="1666666.000000" /> 
<path d="M186857000 39090600
L191857000 39090600
" />
<path d="M189357000 36590600
L189357000 41590600
" />
</g>
<g style="fill:#000000; fill-opacity:0.0; 
stroke:#000000; stroke-width:100000.000000; stroke-opacity:1; 
stroke-linecap:round; stroke-linejoin:round;">
<path d="M308102001 20421603
L310794401 20497801
" />
<path d="M261366001 21945603
L264414000 21564602
" />
<path d="M48641001 122910600
L48006000 121005602
" />
<path d="M131572001 24739601
L136652001 26263601
" />
<path d="M65277999 22377401
L65430402 22072603
" />
<path d="M223647001 33375602
L227330000 31978602
" />
<path d="M235204002 28803601
L237744001 27787602
" />
<path d="M70612001 20421602
L75565002 20294603
" />
<path d="M81280001 137515601
L84328000 137896602
" />
<path d="M337185000 87477602
L337312001 88239601
" />
<path d="M330708002 121005603
L330073000 122910602
" />
<path d="M133985001 157073601
L136221668 158773468
" />
<path d="M140843001 161137602
L144856200 162534600
" />
<path d="M337439000 89636601
L337439001 90652601
" />
<path d="M264414000 21564602
L268097002 21183603
" />
<path d="M209296001 37185601
L213106002 36423601
" />
<path d="M335915001 99542602
L330708002 121005603
" />
<path d="M162560001 35661602
L165608002 36423601
" />
<path d="M112268002 142976601
L116840001 145135603
" />
<path d="M312572401 21209001
L312826400 21463003
" />
<path d="M110617002 21183602
L114300001 21564601
" />
<path d="M327787002 127101601
L326390000 128244601
" />
<path d="M180340001 38582603
L184150002 38836602
" />
<path d="M77470000 136626602
L81280001 137515601
" />
<path d="M237871000 161137602
L240512600 159943801
" />
<path d="M320802000 130911602
L316357001 132562602
" />
<path d="M337058001 93827600
L336677000 95732600
" />
<path d="M165608002 36423601
L169418000 37185602
" />
<path d="M172593001 37693602
L176530001 38201602
" />
<path d="M237744001 27787602
L239903000 27025602
" />
<path d="M138201400 159943802
L140843001 161137602
" />
<path d="M337185000 87477602
L336804001 86334602
" />
<path d="M316357001 132562602
L301244002 136626602
" />
<path d="M83693000 20167600
L89535000 20167602
" />
<path d="M67919601 20497801
L70612001 20421602
" />
<path d="M312216801 20955001
L312572401 21209001
" />
<path d="M221361000 34137601
L223647001 33375602
" />
<path d="M52324001 128244602
L50927002 127101601
" />
<path d="M140970001 27787601
L143510002 28803601
" />
<path d="M62357000 132562602
L57912002 130911603
" />
<path d="M247777002 154355801
L251485400 151053801
" />
<path d="M189357002 166090601
L155447999 165709602
" />
<path d="M41402000 91922601
L41275001 90652601
" />
<path d="M160147000 35026601
L162560001 35661602
" />
<path d="M143510002 28803601
L147320001 30327602
" />
<path d="M121538999 22580602
L124968002 23215601
" />
<path d="M261874002 145135601
L266446001 142976603
" />
<path d="M297434001 137515601
L301244002 136626602
" />
<path d="M218567001 35026603
L221361000 34137601
" />
<path d="M250952001 23850601
L253746003 23215601
" />
<path d="M313436001 22377401
L313537601 22733002
" />
<path d="M311810401 20751803
L312216801 20955001
" />
<path d="M97917001 139420602
L92074810 138533916
" />
<path d="M326390000 128244601
L325056501 128943102
" />
<path d="M337439001 90652601
L337312001 91922601
" />
<path d="M157353000 34137602
L160147000 35026601
" />
<path d="M107949395 141709265
L97917001 139420602
" />
<path d="M107823003 20929602
L110617002 21183602
" />
<path d="M231394001 30327603
L235204002 28803601
" />
<path d="M244728999 157073602
L247777002 154355801
" />
<path d="M57912002 130911603
L53657501 128943102
" />
<path d="M136652001 26263601
L138811001 27025603
" />
<path d="M117348001 21945603
L121538999 22580602
" />
<path d="M41402001 88239603
L41529001 87477601
" />
<path d="M280797001 139420603
L270764608 141709264
" />
<path d="M277114001 20548602
L283210001 20294601
" />
<path d="M138811001 27025603
L140970001 27787601
" />
<path d="M194564001 38836601
L198374002 38582601
" />
<path d="M294386001 137896602
L297434001 137515601
" />
<path d="M41656001 93827601
L41402000 91922601
" />
<path d="M65887601 21463002
L66141600 21209002
" />
<path d="M42037001 95732601
L41656001 93827601
" />
<path d="M313537601 22733002
L336804001 86334602
" />
<path d="M289179001 20167603
L295021001 20167602
" />
<path d="M295021001 20167602
L303149000 20294602
" />
<path d="M49784001 125450602
L48641001 122910600
" />
<path d="M328930001 125450601
L327787002 127101601
" />
<path d="M130937002 154355802
L133985001 157073601
" />
<path d="M41275001 90652601
L41275001 89636602
" />
<path d="M303149000 20294602
L308102001 20421603
" />
<path d="M124383801 149225002
L127228601 151053802
" />
<path d="M41275001 89636602
L41402001 88239603
" />
<path d="M206121001 37693602
L209296001 37185601
" />
<path d="M227330000 31978602
L231394001 30327603
" />
<path d="M239903000 27025602
L242062002 26263601
" />
<path d="M48006000 121005602
L42799000 99542602
" />
<path d="M147320001 30327602
L151384000 31978601
" />
<path d="M66903601 20751802
L67310002 20599401
" />
<path d="M50927002 127101601
L49784001 125450602
" />
<path d="M101600000 20548602
L107823003 20929602
" />
<path d="M216154000 35661602
L218567001 35026603
" />
<path d="M124968002 23215601
L127762000 23850602
" />
<path d="M270891001 20929602
L277114001 20548602
" />
<path d="M155067001 33375602
L157353000 34137602
" />
<path d="M233857800 162534600
L237871000 161137602
" />
<path d="M312826400 21463003
L313080402 21767801
" />
<path d="M311404001 20599402
L311810401 20751803
" />
<path d="M240512600 159943801
L242492333 158773470
" />
<path d="M89535000 20167602
L95504001 20294601
" />
<path d="M77470000 136626602
L62357000 132562602
" />
<path d="M42799000 99542602
L42037001 95732601
" />
<path d="M65633602 21767801
L65887601 21463002
" />
<path d="M184150002 38836602
L189357000 39090600
" />
<path d="M53657501 128943102
L52324001 128244602
" />
<path d="M313283600 22072603
L313436001 22377401
" />
<path d="M41910000 86334600
L41529001 87477601
" />
<path d="M198374002 38582601
L202184001 38201603
" />
<path d="M75565002 20294603
L83693000 20167600
" />
<path d="M336677000 95732600
L335915001 99542602
" />
<path d="M92074810 138533916
L84328000 137896602
" />
<path d="M233857800 162534600
L223266001 165709601
" />
<path d="M155447999 165709602
L144856200 162534600
" />
<path d="M41910000 86334600
L65176401 22733003
" />
<path d="M247142001 24739601
L250952001 23850601
" />
<path d="M176530001 38201602
L180340001 38582603
" />
<path d="M124383801 149225002
L116840903 145133939
" />
<path d="M266446001 142976603
L270764000 141706602
" />
<path d="M127762000 23850602
L131572001 24739601
" />
<path d="M337312001 91922601
L337058001 93827600
" />
<path d="M136221668 158773468
L138201400 159943802
" />
<g >
</g>
<g >
</g>
<g >
</g>
<g >
</g>
<g >
</g>
<g >
</g>
<g >
</g>
<g >
</g>
<g >
</g>
<g >
</g>
<g >
</g>
<g >
</g>
<g >
</g>
<g >
</g>
<g >
</g>
<g >
</g>
<g >
</g>
<g >
</g>
<g >
</g>
<g >
</g>
<g >
</g>
<g >
</g>
<g >
</g>
<g >
</g>
<g >
</g>
<g >
</g>
<g >
</g>
<g >
</g>
<g >
</g>
<g >
</g>
<g >
</g>
<g >
</g>
<g >
</g>
<g >
</g>
<g >
</g>
<g >
</g>
<g >
</g>
<g >
</g>
<g >
</g>
<g >
</g>
<g >
</g>
<g >
</g>
<g >
</g>
<g >
</g>
<g >
</g>
<g >
</g>
<g >
</g>
<g >
</g>
<g >
</g>
<g >
</g>
<g >
</g>
<g >
</g>
<g >
</g>
<g >
</g>
<g >
</g>
<g >
</g>
<g >
</g>
<g >
</g>
<g >
</g>
<g >
</g>
<g >
</g>
<g >
</g>
<g >
</g>
<g >
</g>
<g >
</g>
<g >
</g>
<g >
</g>
<g >
</g>
<g >
</g>
<g >
</g>
<g >
</g>
<g >
</g>
<g >
</g>
<g >
</g>
<g >
</g>
<g >
</g>
<g >
</g>
<g >
</g>
<g >
</g>
<g >
</g>
<g >
</g>
<g >
</g>
<g >
</g>
<g >
</g>
<g >
</g>
<g >
</g>
<g >
</g>
<g >
</g>
<g >
</g>
<g >
</g>
<g >
</g>
<g >
</g>
<g >
</g>
<g >
</g>
<g >
</g>
<g >
</g>
<g >
</g>
<g >
</g>
<g >
</g>
<g >
</g>
<g >
</g>
<g >
</g>
<g >
</g>
<g >
</g>
<g >
</g>
<g >
</g>
<g >
</g>
<g >
</g>
<g >
</g>
<g >
</g>
<g >
</g>
<g >
</g>
<g >
</g>
<g >
</g>
<g >
</g>
<g >
</g>
<g >
</g>
<g >
</g>
<g >
</g>
<g >
</g>
<g >
</g>
<g >
</g>
<g >
</g>
<g >
</g>
<g >
</g>
<g >
</g>
<g >
</g>
</g> 
</svg>
